<svg id="bycicle" xmlns="http://www.w3.org/2000/svg" width="17.004" height="10.592" viewBox="0 0 17.004 10.592">
  <path id="Tracé_1" data-name="Tracé 1" d="M3.405,210.806a3.4,3.4,0,1,1,3.4-3.4,3.4,3.4,0,0,1-3.4,3.4Zm0-5.708A2.305,2.305,0,1,0,5.711,207.4,2.308,2.308,0,0,0,3.405,205.1Z" transform="translate(0 -200.215)" fill="#8e8c8c"/>
  <path id="Tracé_2" data-name="Tracé 2" d="M4.026,204.024a.25.25,0,0,1-.04.5,3.427,3.427,0,0,0-3.4,3.432.25.25,0,0,1-.5.046A3.409,3.409,0,0,1,4.026,204.024Z" transform="translate(-0.034 -200.186)" fill="#838383"/>
  <path id="Tracé_3" data-name="Tracé 3" d="M300.486,210.359a3.411,3.411,0,1,1,3.411-3.411A3.415,3.415,0,0,1,300.486,210.359Zm0-5.724a2.314,2.314,0,1,0,2.314,2.314A2.316,2.316,0,0,0,300.486,204.635Z" transform="translate(-286.892 -199.767)" fill="#8e8c8c"/>
  <path id="Tracé_4" data-name="Tracé 4" d="M301.036,204.024a.25.25,0,0,1-.04.5,3.427,3.427,0,0,0-3.4,3.432.25.25,0,0,1-.5.046A3.409,3.409,0,0,1,301.036,204.024Z" transform="translate(-286.863 -200.186)" fill="#838383"/>
  <path id="Tracé_5" data-name="Tracé 5" d="M94.269,100.543,92.08,93.915a.548.548,0,0,0-.521-.376H90.3a.548.548,0,1,0,0,1.1h.867l.294.891H85.989l-.573-.952a.548.548,0,0,0-.94.566l.578.959-2.013,4.41a.549.549,0,0,0,.5.776h4.94a.549.549,0,0,0,.432-.211l3.077-3.936,1.238,3.749a.548.548,0,0,0,1.042-.344Zm-8.53-3.3,1.775,2.95H84.393Zm2.8,2.529-1.892-3.144H91Z" transform="translate(-80.146 -93.539)" fill="#6a6666"/>
  <path id="Tracé_6" data-name="Tracé 6" d="M108.337,116.635h-1.714a.548.548,0,0,1,0-1.1h1.714a.548.548,0,0,1,0,1.1Z" transform="translate(-102.439 -114.784)" fill="#8e8c8c"/>
  <path id="Tracé_7" data-name="Tracé 7" d="M108.328,116.016h-1.249a.548.548,0,0,0-.509.345.237.237,0,0,1-.408.054.551.551,0,0,1,.457-.876h1.7a.239.239,0,1,1,.013.477Z" transform="translate(-102.417 -114.785)" fill="#838383"/>
</svg>
