<svg id="bycicle" xmlns="http://www.w3.org/2000/svg" width="42.936" height="26.744" viewBox="0 0 42.936 26.744">
  <path id="Tracé_1" data-name="Tracé 1" d="M8.6,221.184a8.585,8.585,0,1,1,8.591-8.591A8.6,8.6,0,0,1,8.6,221.184Zm0-14.412a5.821,5.821,0,1,0,5.821,5.821A5.828,5.828,0,0,0,8.6,206.771Z" transform="translate(0 -194.441)" fill="#9ec453"/>
  <path id="Tracé_2" data-name="Tracé 2" d="M10.111,204.1a.631.631,0,0,1-.1,1.252,8.653,8.653,0,0,0-8.575,8.665.631.631,0,0,1-1.252.117A8.609,8.609,0,0,1,10.111,204.1Z" transform="translate(-0.032 -194.414)" fill="#84b22a"/>
  <path id="Tracé_3" data-name="Tracé 3" d="M305.687,220.762a8.612,8.612,0,1,1,8.612-8.612A8.622,8.622,0,0,1,305.687,220.762Zm0-14.454a5.842,5.842,0,1,0,5.842,5.842A5.849,5.849,0,0,0,305.687,206.308Z" transform="translate(-271.363 -194.017)" fill="#9ec453"/>
  <path id="Tracé_4" data-name="Tracé 4" d="M307.121,204.1a.631.631,0,0,1-.1,1.252,8.653,8.653,0,0,0-8.575,8.665.631.631,0,0,1-1.252.117A8.609,8.609,0,0,1,307.121,204.1Z" transform="translate(-271.336 -194.414)" fill="#84b22a"/>
  <path id="Tracé_5" data-name="Tracé 5" d="M111.468,111.224,105.94,94.489a1.385,1.385,0,0,0-1.315-.95h-3.191a1.385,1.385,0,0,0,0,2.77h2.19l.743,2.25H90.561l-1.447-2.4a1.385,1.385,0,0,0-2.373,1.428l1.458,2.423L83.117,111.14a1.386,1.386,0,0,0,1.26,1.96H96.851a1.385,1.385,0,0,0,1.091-.532l7.769-9.939,3.127,9.465a1.385,1.385,0,0,0,2.63-.869Zm-21.537-8.343,4.483,7.448H86.531Zm7.076,6.385-4.778-7.939h10.983Z" transform="translate(-75.808 -93.539)" fill="#b4e530"/>
  <path id="Tracé_6" data-name="Tracé 6" d="M111.787,118.308H107.46a1.385,1.385,0,0,1,0-2.77h4.328a1.385,1.385,0,1,1,0,2.77Z" transform="translate(-96.894 -113.634)" fill="#9ec453"/>
  <path id="Tracé_7" data-name="Tracé 7" d="M111.8,116.743h-3.155a1.384,1.384,0,0,0-1.286.87.6.6,0,0,1-1.031.136,1.391,1.391,0,0,1,1.154-2.211h4.286A.6.6,0,1,1,111.8,116.743Z" transform="translate(-96.874 -113.635)" fill="#84b22a"/>
</svg>
