<?xml version="1.0" encoding="iso-8859-1"?>
<!-- Generator: Adobe Illustrator 19.0.0, SVG Export Plug-In . SVG Version: 6.00 Build 0)  -->
<svg version="1.1" id="Capa_1" xmlns="http://www.w3.org/2000/svg" xmlns:xlink="http://www.w3.org/1999/xlink" x="0px" y="0px"
	 viewBox="0 0 512 512" style="enable-background:new 0 0 512 512;" xml:space="preserve">
<g>
	<g>
		<g>
			<path d="M256,0C114.497,0,0,114.516,0,256c0,141.503,114.516,256,256,256c141.503,0,256-114.516,256-256
				C512,114.497,397.484,0,256,0z M256,472c-119.393,0-216-96.623-216-216c0-119.393,96.623-216,216-216
				c119.393,0,216,96.623,216,216C472,375.393,375.377,472,256,472z"/>
			<path d="M335.741,150.961l-212.132,70.71c-7.802,2.6-13.217,9.712-13.648,17.925c-0.431,8.213,4.21,15.853,11.697,19.256
				l90.399,41.091l41.091,90.399c3.416,7.515,11.075,12.128,19.257,11.698c8.213-0.431,15.324-5.846,17.925-13.648l70.71-212.132
				c2.395-7.187,0.524-15.111-4.832-20.467C350.85,150.435,342.927,148.565,335.741,150.961z M268.488,327.425l-23.119-50.861
				c-2.001-4.403-5.53-7.931-9.932-9.932l-50.861-23.119l125.868-41.956L268.488,327.425z"/>
		</g>
	</g>
</g>
<g>
</g>
<g>
</g>
<g>
</g>
<g>
</g>
<g>
</g>
<g>
</g>
<g>
</g>
<g>
</g>
<g>
</g>
<g>
</g>
<g>
</g>
<g>
</g>
<g>
</g>
<g>
</g>
<g>
</g>
</svg>
