<svg id="icons_dark_next" data-name="icons/dark/next" xmlns="http://www.w3.org/2000/svg" width="24" height="24" viewBox="0 0 24 24">
  <rect id="bg" width="24" height="24" fill="none"/>
  <path id="union" d="M1597.541-4.4l-5.929-5.93a.742.742,0,0,1-.081-.07.747.747,0,0,1-.219-.536.747.747,0,0,1,.219-.535.751.751,0,0,1,.078-.068l5.932-5.932a.751.751,0,0,1,1.061,0,.751.751,0,0,1,0,1.061l-5.476,5.475,5.476,5.475a.751.751,0,0,1,0,1.061.749.749,0,0,1-.531.219A.749.749,0,0,1,1597.541-4.4Z" transform="translate(1607.832 1.052) rotate(180)" fill="#454f63"/>
</svg>
