<svg id="icons_dark_setting" data-name="icons/dark/setting" xmlns="http://www.w3.org/2000/svg" width="24" height="24" viewBox="0 0 24 24">
  <rect id="bg" width="24" height="24" fill="none"/>
  <path id="path" d="M16.824,16.976a2.255,2.255,0,0,1-4.267,0h-9.3a.762.762,0,1,1,0-1.524h9.3a2.255,2.255,0,0,1,4.267,0h.914a.762.762,0,0,1,0,1.524Zm-2.9-.762a.762.762,0,1,0,.762-.762.72.72,0,0,0-.762.762Zm-1.3-10.667a2.255,2.255,0,0,1-4.267,0h-5.1A.72.72,0,0,1,2.5,4.786a.72.72,0,0,1,.762-.762h5.1a2.255,2.255,0,0,1,4.267,0h5.1a.72.72,0,0,1,.762.762.72.72,0,0,1-.762.762Zm-2.9-.762a.762.762,0,1,0,1.524,0,.762.762,0,1,0-1.524,0Zm8,6.476h-9.3a2.255,2.255,0,0,1-4.267,0H3.262a.762.762,0,1,1,0-1.524h.914a2.255,2.255,0,0,1,4.267,0h9.3a.762.762,0,0,1,0,1.524ZM5.548,10.5a.72.72,0,0,0,.762.762.762.762,0,1,0,0-1.524.72.72,0,0,0-.762.762Z" transform="translate(1.5 1.5)" fill="#454f63"/>
</svg>
